<?xml version="1.0" encoding="utf-8"?>
<!DOCTYPE svg PUBLIC "-//W3C//DTD SVG 20010904//EN" "http://www.w3.org/TR/2001/REC-SVG-20010904/DTD/svg10.dtd">
<svg version="1.0" xmlns="http://www.w3.org/2000/svg" width="320px" height="320px" viewBox="0 0 320 320" preserveAspectRatio="xMidYMid meet">
 <g fill="#ffffff">
  <path d="M62.5 266.2 c-4.1 -1.5 -5.4 -2.5 -6.9 -5.7 -2.7 -5.4 -3.3 -13.8 -1.3 -16.9 0.9 -1.3 8.2 -7.5 16.3 -13.6 25.3 -19.4 43.9 -35.2 68.4 -58.3 l11.4 -10.8 4.5 4.5 4.5 4.5 -9 9.6 c-23.2 25.1 -39.8 44.7 -57 67 -6.9 9.1 -14 17.7 -15.6 19 -3.5 3 -8.1 3.2 -15.3 0.7z"/>
  <path d="M245.4 266.6 c-1.2 -0.8 -7.9 -9.1 -15 -18.3 -14.9 -19.5 -29.8 -37.4 -43.2 -52.3 -18.8 -20.8 -38.6 -41.2 -40.8 -42 -1.5 -0.6 -4.6 -0.3 -9.3 1 -14.1 3.9 -18.9 2.2 -31.7 -11.3 -23.1 -24.5 -47.5 -59.6 -52 -74.8 -3.6 -12.1 2.7 -17.4 12.9 -10.9 2.5 1.6 28.2 26.2 56.9 54.7 69.5 68.9 87.3 85.2 124.7 114.2 19.7 15.3 20.9 16.4 21.7 19.6 0.7 2.9 -0.2 8.4 -2.2 13.5 -1.8 4.5 -6.6 7 -14.4 7.7 -4 0.3 -6.1 0 -7.6 -1.1z"/>
  <path d="M166.9 153.2 l-4.3 -3.9 13.6 -13.4 13.6 -13.4 0.4 -11 c0.5 -13.9 1.6 -16.1 14 -28 12.9 -12.6 40.7 -35.5 43 -35.5 2 0 -0.1 2.4 -14.3 16.5 -22.6 22.6 -25.2 26 -20.3 27.9 0.9 0.3 9.2 -6.7 22.3 -18.9 11.6 -10.7 21.3 -19 21.6 -18.5 0.7 1.2 -1.9 4.2 -23.2 26.8 -8.4 8.8 -15.3 16.5 -15.3 17.1 0 0.6 0.9 1.5 2.1 2.2 1.8 0.9 2.6 0.6 5.8 -2.3 2 -1.9 11.2 -10.8 20.6 -19.6 14.7 -14.1 19.5 -17.9 19.5 -15.7 0 0.4 -8.5 9.9 -19 21.2 -10.4 11.3 -19 21.4 -19 22.4 0 1 1 2.1 2.1 2.4 1.8 0.6 5.2 -2.3 21.3 -18.4 10.5 -10.5 19.5 -19.1 19.9 -19.1 0.4 0 0.7 0.4 0.7 0.9 0 1.2 -19.5 25.6 -30.1 37.6 -14.9 16.9 -19.4 19.4 -33.8 19.5 l-9.3 0 -13.8 13.5 -13.7 13.5 -4.4 -3.8z"/>
 </g>
</svg>